<svg width="0" height="0" class="hidden">
  <symbol xmlns="http://www.w3.org/2000/svg" fill="currentColor" viewBox="0 0 16 16" id="emoji-kiss">
    <path fill-rule="evenodd" d="M12.493 13.368a7 7 0 1 1 2.489-4.858c.344.033.68.147.975.328a8 8 0 1 0-2.654 5.152 8.58 8.58 0 0 1-.81-.622Zm-3.731-3.22a13 13 0 0 0-1.107.318.5.5 0 1 1-.31-.95c.38-.125.802-.254 1.192-.343.37-.086.78-.153 1.103-.108.16.022.394.085.561.286.188.226.187.497.131.705a1.892 1.892 0 0 1-.31.593c-.077.107-.168.22-.275.343.107.124.199.24.276.347.142.197.256.397.31.595.055.208.056.479-.132.706-.168.2-.404.262-.563.284-.323.043-.733-.027-1.102-.113a14.87 14.87 0 0 1-1.191-.345.5.5 0 1 1 .31-.95c.371.12.761.24 1.109.321.176.041.325.069.446.084a5.609 5.609 0 0 0-.502-.584.5.5 0 0 1 .002-.695 5.52 5.52 0 0 0 .5-.577 4.465 4.465 0 0 0-.448.082Zm.766-.087-.003-.001-.003-.001c.004 0 .006.002.006.002Zm.002 1.867-.006.001a.038.038 0 0 1 .006-.002ZM6 8c.552 0 1-.672 1-1.5S6.552 5 6 5s-1 .672-1 1.5S5.448 8 6 8Zm2.757-.563a.5.5 0 0 0 .68-.194.934.934 0 0 1 .813-.493c.339 0 .645.19.813.493a.5.5 0 0 0 .874-.486A1.934 1.934 0 0 0 10.25 5.75c-.73 0-1.356.412-1.687 1.007a.5.5 0 0 0 .194.68ZM14 9.828c1.11-1.14 3.884.856 0 3.422-3.884-2.566-1.11-4.562 0-3.421Z"></path>
  </symbol>
  <symbol xmlns="http://www.w3.org/2000/svg" fill="currentColor" viewBox="0 0 16 16" id="emoji-wink">
    <path d="M8 15A7 7 0 1 1 8 1a7 7 0 0 1 0 14zm0 1A8 8 0 1 0 8 0a8 8 0 0 0 0 16z"></path>
    <path d="M4.285 9.567a.5.5 0 0 1 .683.183A3.498 3.498 0 0 0 8 11.5a3.498 3.498 0 0 0 3.032-1.75.5.5 0 1 1 .866.5A4.498 4.498 0 0 1 8 12.5a4.498 4.498 0 0 1-3.898-2.25.5.5 0 0 1 .183-.683zM7 6.5C7 7.328 6.552 8 6 8s-1-.672-1-1.5S5.448 5 6 5s1 .672 1 1.5zm1.757-.437a.5.5 0 0 1 .68.194.934.934 0 0 0 .813.493c.339 0 .645-.19.813-.493a.5.5 0 1 1 .874.486A1.934 1.934 0 0 1 10.25 7.75c-.73 0-1.356-.412-1.687-1.007a.5.5 0 0 1 .194-.68z"></path>
  </symbol>
  <symbol xmlns="http://www.w3.org/2000/svg" fill="currentColor" viewBox="0 0 16 16" id="hand-index">
    <path d="M6.75 1a.75.75 0 0 1 .75.75V8a.5.5 0 0 0 1 0V5.467l.086-.004c.317-.012.637-.008.816.027.134.027.294.096.448.182.077.042.15.147.15.314V8a.5.5 0 1 0 1 0V6.435a4.9 4.9 0 0 1 .106-.01c.316-.024.584-.01.708.04.118.046.3.207.486.43.081.096.15.19.2.259V8.5a.5.5 0 0 0 1 0v-1h.342a1 1 0 0 1 .995 1.1l-.271 2.715a2.5 2.5 0 0 1-.317.991l-1.395 2.442a.5.5 0 0 1-.434.252H6.035a.5.5 0 0 1-.416-.223l-1.433-2.15a1.5 1.5 0 0 1-.243-.666l-.345-3.105a.5.5 0 0 1 .399-.546L5 8.11V9a.5.5 0 0 0 1 0V1.75A.75.75 0 0 1 6.75 1zM8.5 4.466V1.75a1.75 1.75 0 1 0-3.5 0v5.34l-1.2.24a1.5 1.5 0 0 0-1.196 1.636l.345 3.106a2.5 2.5 0 0 0 .405 1.11l1.433 2.15A1.5 1.5 0 0 0 6.035 16h6.385a1.5 1.5 0 0 0 1.302-.756l1.395-2.441a3.5 3.5 0 0 0 .444-1.389l.271-2.715a2 2 0 0 0-1.99-2.199h-.581a5.114 5.114 0 0 0-.195-.248c-.191-.229-.51-.568-.88-.716-.364-.146-.846-.132-1.158-.108l-.132.012a1.26 1.26 0 0 0-.56-.642 2.632 2.632 0 0 0-.738-.288c-.31-.062-.739-.058-1.05-.046l-.048.002zm2.094 2.025z"></path>
  </symbol>
</svg>